Coordinates
version=1
nRows=10
nColumns=28
inDegrees=yes

Units are S.I. units (second, meters, Newtons, ...)
Angles are in degrees.

endheader
time	pelvis_tilt	pelvis_list	pelvis_rotation	pelvis_tx	pelvis_ty	pelvis_tz	hip_flexion_r	hip_adduction_r	hip_rotation_r	knee_angle_r	ankle_angle_r	subtalar_angle_r	mtp_angle_r	hip_flexion_l	hip_adduction_l	hip_rotation_l	knee_angle_l	socket_flexion	socket_adduction	socket_rotation	socket_tx	socket_ty	socket_tz	foot_flex	lumbar_extension	lumbar_bending	lumbar_rotation
      0.64583333	     -4.41077826	     -1.49048485	      6.53272869	     -0.05588307	      0.97284911	      0.26701464	     32.20757817	      3.27907064	      0.00913232	     -9.76772990	     16.95287493	    -21.06341475	      1.61670452	    -17.06965563	     -2.31827155	     17.86578875	     -1.26967745	      0.00000000	      0.00000000	      0.00000000	      0.00000000	      0.00015189	      0.00000000	     10.00576654	     -7.00545688	      0.39285789	     -2.16608655
      0.65000000	     -4.37629818	     -1.54425708	      6.66406235	     -0.04958223	      0.97184817	      0.26659999	     32.29033777	      3.39296098	      0.23626145	    -10.39871673	     16.77801555	    -21.09401696	      1.61182865	    -17.35851431	     -2.40293267	     17.96855139	     -1.50379983	      0.00000000	      0.00000000	      0.00000000	      0.00000000	      0.00021477	      0.00000000	     10.03652322	     -6.96391274	      0.57936425	     -2.18985009
      0.65416667	     -4.30945293	     -1.59646945	      6.74746839	     -0.04326365	      0.97090857	      0.26624031	     32.41128771	      3.53310250	      0.37310046	    -11.20310863	     16.53340858	    -21.18549571	      1.61455704	    -17.68190607	     -2.46836342	     17.97351379	     -1.74604443	      0.00000000	      0.00000000	      0.00000000	      0.00000000	      0.00035451	      0.00000000	     10.05970947	     -6.96457331	      0.77625363	     -2.24412647
      0.65833333	     -4.18373743	     -1.62195716	      6.74318461	     -0.03674961	      0.97001990	      0.26599398	     32.54663262	      3.67770700	      0.30723957	    -12.17151014	     16.15557656	    -21.38761058	      1.70197348	    -18.10997247	     -2.48286046	     17.77596066	     -1.96257660	      0.00000000	      0.00000000	      0.00000000	      0.00000000	      0.00058051	      0.00000000	     10.06086400	     -7.00315900	      0.93960390	     -2.34257404
      0.66250000	     -4.06809530	     -1.67890810	      6.79672578	     -0.03035195	      0.96916619	      0.26568107	     32.62892833	      3.82937605	      0.36179036	    -13.01863976	     15.75751064	    -21.50004942	      1.89710370	    -18.47738328	     -2.54437859	     17.69623581	     -2.23542232	      0.00000000	      0.00000000	      0.00000000	      0.00000000	      0.00069758	      0.00000000	     10.03965247	     -7.05151540	      1.14305588	     -2.39291963
      0.66666667	     -4.01235225	     -1.74663405	      6.92502868	     -0.02398016	      0.96833451	      0.26522367	     32.66951114	      3.95225448	      0.57458693	    -13.68351862	     15.51336594	    -21.49775094	      1.95597671	    -18.72967064	     -2.62737647	     17.77238346	     -2.57591182	      0.00000000	      0.00000000	      0.00000000	      0.00000000	      0.00078763	      0.00000000	      9.99902526	     -7.02122671	      1.36111319	     -2.40036983
      0.67083333	     -3.85240682	     -1.81116509	      6.86091309	     -0.01746760	      0.96755960	      0.26505657	     32.81091462	      4.14880618	      0.40962691	    -14.74969508	     14.89323893	    -21.65156618	      2.25221982	    -19.15484250	     -2.65887710	     17.52483742	     -2.85890384	      0.00000000	      0.00000000	      0.00000000	      0.00000000	      0.00097799	      0.00000000	      9.94421108	     -7.09992496	      1.58036052	     -2.47175649
      0.67500000	     -3.76370873	     -1.89748098	      6.93060528	     -0.01107452	      0.96680221	      0.26472391	     32.87672105	      4.31214685	      0.53218520	    -15.54275347	     14.52070704	    -21.66682026	      2.42204378	    -19.42075719	     -2.74286406	     17.52343298	     -3.25030001	      0.00000000	      0.00000000	      0.00000000	      0.00000000	      0.00100182	      0.00000000	      9.86313681	     -7.12095206	      1.82733053	     -2.48167917
      0.67916667	     -3.60969432	     -1.97702482	      6.88272955	     -0.00447690	      0.96613262	      0.26443414	     32.97094611	      4.49199180	      0.37235114	    -16.53447842	     13.88783936	    -21.74786618	      2.81587343	    -19.80276348	     -2.77634767	     17.27315236	     -3.59712500	      0.00000000	      0.00000000	      0.00000000	      0.00000000	      0.00119432	      0.00000000	      9.76209647	     -7.16568490	      2.07438973	     -2.50972865
      0.68333333	     -3.46155548	     -2.08404838	      6.86473741	      0.00197323	      0.96554499	      0.26419916	     33.02556124	      4.69024858	      0.30240433	    -17.41904911	     13.29970647	    -21.77220740	      3.38171011	    -20.11411341	     -2.84941013	     17.12084747	     -4.03279393	      0.00000000	      0.00000000	      0.00000000	      0.00000000	      0.00125557	      0.00000000	      9.62449130	     -7.24627349	      2.34426010	     -2.49568481
